HIERARCHY
ROOT Hips
{
  OFFSET -69.4423 88.0299 51.6846
  CHANNELS 6 Xposition Yposition Zposition Zrotation Xrotation Yrotation
  JOINT Spine
  {
    OFFSET 12.0259 -0.162853 1.93176e-005
    CHANNELS 3 Zrotation Xrotation Yrotation
    JOINT Spine1
    {
      OFFSET 15.3169 -0.0121909 0
      CHANNELS 3 Zrotation Xrotation Yrotation
      JOINT Spine2
      {
        OFFSET 15.3176 -0.0121922 0
        CHANNELS 3 Zrotation Xrotation Yrotation
        JOINT Neck
        {
          OFFSET 19.9142 1.56236 0
          CHANNELS 3 Zrotation Xrotation Yrotation
          JOINT Head
          {
            OFFSET 6.92646 0 0
            CHANNELS 3 Zrotation Xrotation Yrotation
            End Site
            {
              OFFSET 20.7666 0 0
            }
          }
          JOINT LeftShoulder
          {
            OFFSET -4.94072 -1.14703 8.14416
            CHANNELS 3 Zrotation Xrotation Yrotation
            JOINT LeftArm
            {
              OFFSET 14.108 0 -2.74767e-005
              CHANNELS 3 Zrotation Xrotation Yrotation
              JOINT LeftForeArm
              {
                OFFSET 28.5802 -0.0783412 -0.0284884
                CHANNELS 3 Zrotation Xrotation Yrotation
                JOINT LeftHand
                {
                  OFFSET 27.092 0 0
                  CHANNELS 3 Zrotation Xrotation Yrotation
                  End Site
                  {
                    OFFSET 9.55928 -0.186424 0.145352
                  }
                }
              }
            }
          }
          JOINT RightShoulder
          {
            OFFSET -7.15748 -1.33027 -6.24935
            CHANNELS 3 Zrotation Xrotation Yrotation
            JOINT RightArm
            {
              OFFSET 14.108 0 1.82997e-005
              CHANNELS 3 Zrotation Xrotation Yrotation
              JOINT RightForeArm
              {
                OFFSET 28.5802 -0.0707221 2.30684e-005
                CHANNELS 3 Zrotation Xrotation Yrotation
                JOINT RightHand
                {
                  OFFSET 27.092 0 -1.30073e-005
                  CHANNELS 3 Zrotation Xrotation Yrotation
                  End Site
                  {
                    OFFSET 9.55929 -0.186417 -0.145354
                  }
                }
              }
            }
          }
        }
      }
    }
  }
  JOINT LeftUpLeg
  {
    OFFSET 0.00499725 -0.534999 8.837
    CHANNELS 3 Zrotation Xrotation Yrotation
    JOINT LeftLeg
    {
      OFFSET 39.9035 -0.00124594 0.000252775
      CHANNELS 3 Zrotation Xrotation Yrotation
      JOINT LeftFoot
      {
        OFFSET 39.6689 0 0
        CHANNELS 3 Zrotation Xrotation Yrotation
        JOINT LeftToe
        {
          OFFSET 10.1624 13.6296 0
          CHANNELS 3 Zrotation Xrotation Yrotation
          End Site
          {
            OFFSET 8.38147 0 0
          }
        }
      }
    }
  }
  JOINT RightUpLeg
  {
    OFFSET 0.00499725 -0.535 -8.837
    CHANNELS 3 Zrotation Xrotation Yrotation
    JOINT RightLeg
    {
      OFFSET 39.9036 -0.000268477 0.000106433
      CHANNELS 3 Zrotation Xrotation Yrotation
      JOINT RightFoot
      {
        OFFSET 39.6689 1.17892e-005 0
        CHANNELS 3 Zrotation Xrotation Yrotation
        JOINT RightToe
        {
          OFFSET 10.1624 13.6296 0
          CHANNELS 3 Zrotation Xrotation Yrotation
          End Site
          {
            OFFSET 8.38147 0 0
          }
        }
      }
    }
  }
}
MOTION
Frames:	13
Frame Time:	0.0333333
-1.35789 89.1265 19.1349 121.356 84.8198 -31.1036 -0.487679 -0.635916 0.0492744 -0.974878 -1.27177 0.0933296 -0.974879 -1.27178 0.0933146 -15.7148 -9.1443 -19.4714 46.0216 -9.03085 28.366 -169.476 -13.2695 -100.78 -18.6836 6.17091 88.2852 -22.892 2.65849 -15.0343 4.45348 -82.3931 6.3647 -169.223 -14.8017 67.871 -21.1267 -3.61554 -87.4648 -23.7763 -3.15733 14.9873 1.55114 81.5811 -1.43256 3.0334 3.30426 179.364 -5.32326 0.945946 -1.13645 0.572358 -1.63113 -0.275587 90 -2.47021e-014 1.11568e-014 -6.39792 0.762412 -176.829 -24.2202 -0.529903 -0.156142 6.07828 7.18665 -0.141626 90 3.18055e-015 -7.95139e-015 
-1.36843 89.1053 19.1011 123.347 84.9556 -33.0915 -0.507027 -0.627905 0.0592751 -1.01348 -1.25585 0.113174 -1.01348 -1.25584 0.113166 -15.6449 -9.13979 -19.4774 45.9948 -8.95725 28.4173 -169.548 -13.254 -100.799 -19.0482 6.2559 88.3678 -22.7338 2.62526 -14.9519 5.90436 -83.8188 7.8297 -169.294 -14.7785 67.8424 -20.8891 -3.79078 -87.4283 -23.599 -3.11773 14.8988 1.53535 81.4932 -1.41009 2.82523 3.08617 179.387 -5.54641 0.939832 -1.13255 0.628335 -1.70735 -0.262456 90 1.71762e-015 -7.77745e-015 -6.42047 0.74996 -176.781 -24.0499 -0.530038 -0.150103 6.11381 7.4368 -0.142282 90 8.74653e-015 6.36111e-015 
-1.36881 89.1321 19.0774 124.403 85.0869 -34.2004 -0.483128 -0.616956 0.0760931 -0.965509 -1.23405 0.147167 -0.965509 -1.23406 0.147165 -15.898 -9.10063 -19.3389 46.2229 -9.11259 28.0996 -169.25 -13.2458 -100.592 -19.5633 6.10309 88.3356 -22.4969 2.59072 -14.8287 7.76701 -84.9007 9.82749 -168.991 -14.7772 68.0285 -20.6167 -3.78256 -87.3709 -23.3774 -3.06725 14.7786 1.53137 81.4116 -1.39058 2.76931 2.92746 179.468 -5.52705 0.935654 -1.13296 0.573165 -1.67522 -0.258076 90 8.07563e-017 3.16813e-015 -6.39411 0.727047 -176.719 -24.0173 -0.529903 -0.147408 6.05544 7.51622 -0.13396 90 -5.96354e-015 3.18055e-015 
-1.40853 89.1192 19.0564 124.623 85.1886 -34.5553 -0.475402 -0.614015 0.118358 -0.965237 -1.23533 0.23173 -0.965249 -1.23535 0.23172 -15.7491 -9.04522 -19.3314 46.3926 -8.9541 28.0292 -169.377 -13.1484 -100.627 -19.6257 6.16831 88.4025 -22.4094 2.57226 -14.7831 8.11717 -85.0951 10.1682 -169.118 -14.6746 67.9836 -20.4708 -3.86596 -87.2826 -23.1034 -3.00516 14.6383 1.4876 81.1294 -1.34223 2.57532 2.83576 179.64 -5.84163 0.933167 -1.1226 0.606837 -1.73311 -0.260324 90 8.14862e-015 1.2921e-015 -6.28319 0.864414 -176.518 -23.8604 -0.52943 -0.146106 5.95068 7.73441 -0.11262 90 -1.23246e-014 -0 
-1.40649 89.1293 19.084 125.212 85.285 -35.1847 -0.470275 -0.613116 0.126598 -0.937046 -1.23792 0.243421 -0.937061 -1.23793 0.243411 -15.6378 -8.96696 -19.4103 46.5175 -8.575 28.2382 -169.482 -13.0674 -100.742 -19.6384 6.17692 88.3457 -22.3263 2.55642 -14.7373 8.93097 -85.2735 10.9545 -169.229 -14.5908 67.8563 -20.1845 -3.80096 -87.3182 -22.8776 -2.95016 14.5122 1.44717 80.8534 -1.29935 2.7829 2.72829 179.675 -5.64481 0.932113 -1.12951 0.620636 -1.73801 -0.256366 90 4.99446e-015 3.53464e-015 -6.20165 0.627733 -176.522 -23.8225 -0.528551 -0.14573 5.91876 7.62846 -0.109358 90 -6.36111e-015 1.43125e-014 
-1.41958 89.1473 19.0525 125.852 85.325 -35.8453 -0.489004 -0.607724 0.133828 -0.976672 -1.21608 0.262088 -0.976679 -1.21609 0.262075 -15.5568 -8.90275 -19.4586 47.0347 -8.33422 28.2405 -169.553 -12.9986 -100.835 -19.3639 6.42117 88.4414 -22.5415 2.59364 -14.8468 7.86026 -84.9276 9.8531 -169.303 -14.5065 67.777 -19.877 -3.95848 -87.4019 -22.8184 -2.94014 14.4871 1.40153 80.5174 -1.25275 2.52432 2.6655 179.729 -5.8119 0.932251 -1.12657 0.556323 -1.68513 -0.251977 90 -6.9761e-015 -2.06239e-015 -6.26983 0.598813 -176.479 -23.8782 -0.527201 -0.145816 6.00607 7.65114 -0.125095 90 3.97569e-015 1.59028e-015 
-1.41918 89.1325 19.0426 125.856 85.3898 -35.8517 -0.514307 -0.590451 0.132044 -1.02733 -1.18161 0.258977 -1.02734 -1.18161 0.258956 -15.1861 -8.84118 -19.2839 47.3963 -8.28315 27.8231 -169.853 -12.7824 -100.755 -19.4162 6.63414 88.4364 -22.4931 2.5885 -14.8168 7.52827 -85.0908 9.5967 -169.608 -14.2796 67.8622 -19.651 -4.16298 -87.5235 -22.7671 -2.93064 14.4657 1.39227 80.4375 -1.24318 2.57452 2.61804 179.731 -5.85268 0.933328 -1.12489 0.616248 -1.74116 -0.25332 90 -1.36463e-014 -1.47908e-014 -6.20803 0.641343 -176.469 -23.8144 -0.525311 -0.145899 5.90242 7.73344 -0.104745 90 3.97569e-015 3.18055e-015 
-1.36238 89.1368 19.0239 127.632 85.4212 -37.2882 -0.55322 -0.582726 0.0707019 -1.1058 -1.16565 0.135969 -1.10581 -1.16565 0.135947 -15.3311 -8.62163 -19.1537 48.4706 -8.0212 27.3072 -169.613 -12.5729 -100.628 -19.2711 6.74603 88.4778 -22.4784 2.58917 -14.8045 7.50544 -84.9 9.55612 -169.367 -14.0528 67.9839 -19.5446 -4.20906 -87.548 -22.5469 -2.88024 14.3511 1.36721 80.2243 -1.2189 2.72975 2.49952 179.385 -5.39055 0.935088 -1.14633 0.442682 -1.62852 -0.274751 90 -1.10822e-014 -7.45443e-016 -6.4193 0.624196 -176.856 -24.1416 -0.522814 -0.145514 6.14304 7.74848 -0.144207 90 7.95139e-015 -1.59028e-015 
-1.35923 89.1298 19.0031 127.215 85.4109 -36.7795 -0.550847 -0.546036 0.065078 -1.09444 -1.09218 0.125103 -1.09445 -1.09218 0.125101 -15.6782 -8.19572 -18.4771 49.8243 -8.08196 25.5901 -168.988 -12.0687 -99.9475 -19.225 6.75168 88.5509 -22.5201 2.59162 -14.8226 7.47829 -84.7673 9.5301 -168.74 -13.5257 68.6572 -19.2998 -4.13719 -87.4846 -22.4665 -2.86251 14.3057 1.36331 80.1649 -1.21605 2.7963 2.53196 179.29 -5.26568 0.937295 -1.15004 0.349582 -1.58523 -0.279512 90 -1.89901e-014 7.52897e-015 -6.48488 0.65978 -176.942 -24.227 -0.519599 -0.144691 6.19929 7.76536 -0.153133 90 -6.36111e-015 6.36111e-015 
-1.38962 89.1458 19.0125 126.435 85.4474 -36.1622 -0.558763 -0.49957 0.0983577 -1.1167 -0.999633 0.192026 -1.11672 -0.999635 0.19201 -15.5587 -7.86776 -18.3017 50.9865 -7.40425 25.1441 -168.971 -11.6716 -99.857 -19.327 6.80826 88.5768 -22.4274 2.57772 -14.7739 7.52595 -84.7158 9.59911 -168.726 -13.1255 68.7402 -19.0161 -4.12732 -87.4737 -22.3085 -2.82831 14.2232 1.37578 80.2228 -1.22963 2.72229 2.5502 179.471 -5.50715 0.939695 -1.14759 0.46768 -1.60952 -0.277999 90 6.45429e-015 -3.03147e-015 -6.33518 0.646356 -176.746 -24.0708 -0.51803 -0.143791 5.87536 7.8432 -0.0956267 90 -2.3059e-014 6.36111e-015 
-1.35519 89.1205 19.0235 126.098 85.4779 -35.6656 -0.608943 -0.522065 0.101207 -1.21732 -1.04457 0.175862 -1.21733 -1.04457 0.175852 -15.2347 -7.30648 -18.4138 51.7066 -5.91523 25.0384 -169.152 -11.088 -100.137 -19.162 6.94453 88.7647 -22.3581 2.56724 -14.7398 7.4843 -84.6758 9.56954 -168.918 -12.5331 68.4536 -18.8174 -4.35233 -87.4745 -22.3531 -2.84008 14.2509 1.35382 79.9873 -1.20933 2.85771 2.52985 179.29 -5.32716 0.942037 -1.14676 0.404408 -1.56803 -0.279823 90 -2.20465e-014 -7.25564e-015 -6.34749 0.638005 -176.94 -24.1855 -0.517298 -0.14284 6.07213 7.80742 -0.129127 90 -2.62396e-014 -1.59028e-015 
-1.35361 89.1376 18.9812 125.941 85.4488 -35.4811 -0.573401 -0.467927 0.0953435 -1.14595 -0.936393 0.195185 -1.14597 -0.936403 0.195165 -16.545 -6.39732 -17.22 54.1639 -5.44653 22.5944 -167.382 -10.2431 -98.8832 -19.4996 6.7361 88.7763 -22.2912 2.5572 -14.706 7.73051 -84.796 9.77994 -167.145 -11.6566 69.6947 -18.7438 -4.21667 -87.3998 -22.5226 -2.87948 14.3354 1.37846 80.1094 -1.23469 2.98762 2.56812 179.27 -5.0527 0.944069 -1.1558 0.275569 -1.50743 -0.290686 90 4.19933e-015 2.18663e-015 -6.42387 0.686825 -176.965 -24.2888 -0.517073 -0.141865 6.15583 7.76168 -0.144907 90 -3.18055e-015 -9.54166e-015 
-1.30062 89.16 18.9301 127.074 85.4805 -36.4518 -0.566963 -0.439268 0.0914281 -1.13331 -0.878918 0.174182 -1.13332 -0.878917 0.174181 -16.7386 -5.66338 -16.8984 54.6695 -4.06083 21.8832 -166.946 -9.51599 -98.69 -19.8572 6.58425 88.8238 -22.3653 2.56224 -14.7484 7.81568 -84.8566 9.8909 -166.709 -10.9304 69.8822 -18.7543 -4.17893 -87.2629 -22.6495 -2.90907 14.4008 1.41414 80.2908 -1.27059 2.98423 2.48389 179.11 -4.85296 0.945545 -1.16142 0.164542 -1.39327 -0.292369 90 -6.99474e-015 -1.33683e-014 -6.56839 0.635784 -177.16 -24.4032 -0.517023 -0.140893 6.19099 7.78732 -0.150425 90 -9.54166e-015 1.59028e-015 
